<svg xmlns="http://www.w3.org/2000/svg" xmlns:xlink="http://www.w3.org/1999/xlink" width="88" zoomAndPan="magnify" viewBox="0 0 66 68.249996" height="91" preserveAspectRatio="xMidYMid meet" version="1.2"><defs><clipPath id="da802be7f1"><path d="M 59.632812 31.226562 L 61.96875 31.226562 L 61.96875 34 L 59.632812 34 Z M 59.632812 31.226562 "/></clipPath><clipPath id="dbc93491e6"><path d="M 59.648438 32.355469 C 61.207031 31.316406 61.949219 32.578125 61.800781 32.875 C 61.652344 33.171875 60.167969 33.394531 59.945312 33.171875 C 59.722656 32.875 60.019531 31.539062 60.316406 31.316406 C 60.613281 31.167969 61.132812 31.242188 61.355469 31.464844 C 61.652344 31.6875 62.019531 32.28125 61.949219 32.652344 C 61.949219 33.097656 61.429688 33.914062 61.058594 33.988281 C 60.6875 34.0625 59.648438 33.246094 59.648438 33.246094 "/></clipPath><clipPath id="6c12de34bc"><path d="M 0.359375 0 L 61.933594 0 L 61.933594 66.765625 L 0.359375 66.765625 Z M 0.359375 0 "/></clipPath></defs><g id="2cbe40a882"><g clip-rule="nonzero" clip-path="url(#da802be7f1)"><g clip-rule="nonzero" clip-path="url(#dbc93491e6)"><path style=" stroke:none;fill-rule:nonzero;fill:#1e1e1e;fill-opacity:1;" d="M 56.679688 28.273438 L 64.988281 28.273438 L 64.988281 36.941406 L 56.679688 36.941406 Z M 56.679688 28.273438 "/></g></g><g clip-rule="nonzero" clip-path="url(#6c12de34bc)"><path style=" stroke:none;fill-rule:nonzero;fill:#68c84f;fill-opacity:1;" d="M 31.597656 7.46875 C 30.492188 6.957031 28.121094 6.664062 25.628906 6.925781 C 23.140625 7.183594 20.558594 7.960938 17.914062 9.234375 C 15.269531 10.511719 12.5625 12.273438 10.164062 14.304688 C 7.761719 16.335938 5.96875 18.425781 4.546875 20.734375 C 3.125 23.039062 2.09375 25.550781 1.429688 28.234375 C 0.765625 30.917969 0.464844 33.769531 0.578125 36.933594 C 0.6875 40.101562 1.167969 43.253906 1.957031 46.140625 C 2.746094 49.03125 3.851562 51.652344 5.277344 53.992188 C 6.703125 56.335938 8.449219 58.394531 10.550781 60.167969 C 12.648438 61.941406 15.011719 63.375 17.566406 64.425781 C 20.125 65.476562 22.863281 66.148438 25.769531 66.441406 C 28.679688 66.734375 31.753906 66.65625 35.152344 66.09375 C 38.554688 65.535156 41.902344 64.410156 44.90625 62.777344 C 47.910156 61.140625 50.550781 58.996094 52.816406 56.359375 C 55.082031 53.726562 56.96875 50.609375 58.5 46.929688 C 60.035156 43.25 61.0625 39.398438 61.496094 35.652344 C 61.929688 31.90625 61.757812 28.269531 60.980469 24.765625 C 60.203125 21.261719 58.820312 17.898438 56.824219 14.777344 C 54.828125 11.660156 52.519531 9.058594 49.996094 6.929688 C 47.46875 4.800781 44.734375 3.152344 41.792969 2 C 38.851562 0.847656 35.71875 0.199219 32.273438 0.121094 C 28.832031 0.0429688 25.277344 0.519531 21.785156 1.476562 C 18.292969 2.433594 14.875 3.871094 11.546875 5.785156 C 8.21875 7.695312 5.027344 10.128906 2.695312 12.175781 C 0.359375 14.21875 0.359375 14.21875 2.011719 12.992188 C 2.011719 12.992188 5.59375 10.933594 9.007812 9.160156 C 12.425781 7.386719 15.777344 5.992188 19.101562 5.015625 C 22.429688 4.042969 25.742188 3.472656 29.039062 3.316406 C 32.339844 3.15625 35.222656 3.441406 37.9375 4.164062 C 40.65625 4.890625 43.191406 6.054688 45.566406 7.664062 C 47.941406 9.273438 50.160156 11.34375 52.207031 13.863281 C 54.253906 16.378906 55.851562 19.308594 56.910156 22.371094 C 57.972656 25.429688 58.488281 28.609375 58.457031 31.921875 C 58.429688 35.238281 57.847656 38.699219 56.707031 42.308594 C 55.570312 45.921875 54.070312 49.058594 52.257812 51.722656 C 50.445312 54.386719 48.324219 56.582031 45.886719 58.324219 C 43.449219 60.066406 40.679688 61.367188 37.5625 62.226562 C 34.445312 63.085938 31.539062 63.378906 28.792969 63.339844 C 26.042969 63.300781 23.492188 62.929688 21.125 62.222656 C 18.761719 61.519531 16.570312 60.484375 14.554688 59.117188 C 12.535156 57.753906 10.84375 56.144531 9.414062 54.265625 C 7.984375 52.386719 6.820312 50.234375 5.921875 47.800781 C 5.027344 45.367188 4.398438 42.640625 4.050781 39.636719 C 3.699219 36.632812 3.75 33.964844 4.125 31.464844 C 4.5 28.964844 5.195312 26.644531 6.203125 24.488281 C 7.210938 22.335938 8.511719 20.316406 10.132812 18.4375 C 11.757812 16.558594 14.214844 14.453125 16.617188 12.777344 C 19.015625 11.097656 21.351562 9.863281 23.632812 9.058594 C 25.914062 8.253906 28.164062 7.859375 29.304688 7.625 C 31.578125 7.585938 30.464844 7.277344 31.597656 7.46875 Z M 31.597656 7.46875 "/></g></g></svg>