<svg xmlns="http://www.w3.org/2000/svg" xmlns:xlink="http://www.w3.org/1999/xlink" width="189" zoomAndPan="magnify" viewBox="0 0 141.75 157.5" height="210" preserveAspectRatio="xMidYMid meet" version="1.2"><defs><clipPath id="564800fa96"><path d="M 0.621094 0 L 140.429688 0 L 140.429688 156.253906 L 0.621094 156.253906 Z M 0.621094 0 "/></clipPath><clipPath id="9a34bb0bed"><path d="M 7.496094 5.816406 L 34.925781 5.816406 L 34.925781 22.484375 L 7.496094 22.484375 Z M 7.496094 5.816406 "/></clipPath><clipPath id="ed2144a65e"><path d="M 9.667969 15.164062 C 23.203125 8.136719 27.910156 6.042969 30.230469 5.894531 C 31.351562 5.820312 32.097656 5.96875 32.847656 6.417969 C 33.519531 6.867188 34.265625 7.539062 34.566406 8.4375 C 34.863281 9.410156 34.714844 11.351562 34.191406 12.25 C 33.742188 12.996094 32.921875 13.597656 32.097656 13.894531 C 31.351562 14.121094 30.304688 14.269531 29.480469 13.894531 C 28.507812 13.519531 27.164062 12.101562 26.789062 11.128906 C 26.492188 10.304688 26.566406 9.257812 26.863281 8.511719 C 27.164062 7.691406 27.761719 6.867188 28.585938 6.492188 C 29.554688 5.96875 31.425781 5.746094 32.398438 6.195312 C 33.445312 6.71875 34.566406 8.214844 34.789062 9.257812 C 35.015625 10.15625 34.789062 11.128906 34.414062 11.875 C 34.042969 12.625 33.445312 13.148438 32.546875 13.671875 C 30.753906 14.792969 27.015625 15.390625 23.949219 16.585938 C 20.136719 18.082031 13.929688 22.34375 11.3125 22.417969 C 10.191406 22.417969 9.445312 21.96875 8.773438 21.371094 C 8.175781 20.847656 7.726562 19.726562 7.574219 18.980469 C 7.5 18.304688 7.574219 17.707031 7.875 17.109375 C 8.175781 16.4375 9.667969 15.164062 9.667969 15.164062 "/></clipPath><clipPath id="5a14e7caee"><path d="M 6.585938 6.628906 L 54.15625 6.628906 L 54.15625 39.328125 L 6.585938 39.328125 Z M 6.585938 6.628906 "/></clipPath><clipPath id="de1fb5dac7"><path d="M 7.875 32.660156 C 29.632812 14.867188 38.304688 12.699219 42.789062 10.457031 C 45.332031 9.109375 46.902344 7.316406 48.546875 6.941406 C 49.667969 6.644531 50.789062 6.792969 51.535156 7.089844 C 52.210938 7.316406 52.734375 7.839844 53.179688 8.363281 C 53.554688 8.886719 53.929688 9.484375 54.003906 10.15625 C 54.078125 11.054688 54.078125 12.25 53.480469 13.148438 C 52.582031 14.417969 49.742188 16.136719 48.097656 16.289062 C 46.75 16.4375 45.179688 15.839844 44.359375 14.941406 C 43.613281 14.121094 43.238281 12.175781 43.386719 11.128906 C 43.535156 10.230469 44.210938 9.410156 44.808594 8.8125 C 45.480469 8.289062 46.453125 7.839844 47.351562 7.914062 C 48.472656 7.988281 50.265625 8.660156 50.9375 9.632812 C 51.609375 10.605469 51.910156 12.472656 51.460938 13.597656 C 51.085938 14.644531 49.59375 15.839844 48.546875 16.210938 C 47.722656 16.511719 46.601562 16.363281 45.855469 15.988281 C 45.03125 15.6875 44.210938 15.015625 43.835938 14.195312 C 43.386719 13.222656 43.164062 11.429688 43.6875 10.230469 C 44.433594 8.886719 47.050781 7.316406 48.546875 6.941406 C 49.667969 6.644531 50.714844 6.644531 51.535156 7.089844 C 52.582031 7.613281 53.703125 9.109375 54.003906 10.15625 C 54.226562 11.128906 54.003906 12.324219 53.480469 13.148438 C 52.808594 14.195312 51.3125 14.792969 49.890625 15.613281 C 47.949219 16.734375 45.703125 17.855469 43.011719 19.054688 C 39.273438 20.625 33.96875 21.296875 29.332031 23.988281 C 23.574219 27.351562 15.128906 37.820312 11.6875 38.941406 C 10.492188 39.390625 9.742188 39.164062 8.996094 38.789062 C 8.175781 38.492188 7.425781 37.59375 7.050781 36.921875 C 6.753906 36.324219 6.679688 35.726562 6.753906 35.128906 C 6.828125 34.304688 7.875 32.660156 7.875 32.660156 "/></clipPath><clipPath id="e66ea51850"><path d="M 3 15 L 56.375 15 L 56.375 126.347656 L 3 126.347656 Z M 3 15 "/></clipPath><clipPath id="22094e8a90"><path d="M 5.78125 46.714844 C 23.574219 30.417969 28.957031 26.15625 34.339844 22.867188 C 39.5 19.726562 46.453125 15.539062 50.191406 15.164062 C 52.210938 14.941406 53.929688 15.464844 54.976562 16.4375 C 55.871094 17.257812 56.246094 18.902344 56.320312 20.175781 C 56.472656 21.371094 56.097656 22.566406 55.574219 23.914062 C 54.976562 25.484375 54.152344 26.976562 52.65625 28.921875 C 49.964844 32.363281 44.734375 36.996094 39.273438 41.480469 C 31.722656 47.761719 16.25 60.695312 10.941406 61.96875 C 9.070312 62.414062 7.800781 61.816406 6.902344 61.292969 C 6.230469 60.921875 5.855469 60.324219 5.632812 59.648438 C 5.257812 58.828125 5.183594 57.40625 5.40625 56.507812 C 5.558594 55.835938 5.707031 55.3125 6.453125 54.714844 C 8.023438 53.519531 12.359375 53.371094 16.546875 51.800781 C 24.324219 48.882812 43.3125 37.746094 48.472656 36.773438 C 49.964844 36.472656 50.714844 36.621094 51.535156 36.921875 C 52.210938 37.222656 52.808594 37.59375 53.179688 38.269531 C 53.703125 38.941406 54.226562 40.210938 54.152344 41.183594 C 54.078125 42.15625 53.777344 42.902344 52.882812 44.023438 C 50.566406 47.164062 42.640625 53.371094 36.359375 58.378906 C 28.660156 64.507812 13.78125 75.875 9.894531 77.742188 C 8.921875 78.191406 8.546875 78.265625 7.875 78.265625 C 6.976562 78.191406 5.632812 77.742188 4.960938 77.144531 C 4.359375 76.695312 3.988281 76.171875 3.761719 75.5 C 3.464844 74.601562 3.539062 73.105469 3.6875 72.359375 C 3.835938 71.984375 3.835938 71.6875 4.210938 71.460938 C 5.035156 70.789062 8.097656 71.011719 10.117188 70.414062 C 12.511719 69.742188 15.128906 68.472656 17.59375 67.277344 C 20.136719 66.003906 21.855469 64.585938 25.144531 62.9375 C 30.828125 60.097656 45.03125 53.21875 49.292969 52.472656 C 50.789062 52.25 51.609375 52.324219 52.433594 52.621094 C 53.105469 52.921875 53.628906 53.371094 54.078125 53.894531 C 54.527344 54.640625 55.050781 55.910156 54.976562 56.882812 C 54.902344 57.855469 54.675781 58.527344 53.703125 59.648438 C 50.414062 63.460938 32.246094 72.433594 24.695312 77.816406 C 19.539062 81.554688 14.679688 86.640625 12.210938 87.984375 C 11.390625 88.433594 10.941406 88.582031 10.265625 88.582031 C 9.371094 88.65625 8.023438 88.285156 7.277344 87.6875 C 6.453125 87.164062 5.855469 85.964844 5.632812 85.070312 C 5.40625 84.320312 5.558594 83.5 5.707031 82.976562 C 5.78125 82.601562 5.78125 82.304688 6.15625 82.003906 C 6.976562 81.257812 9.96875 81.40625 11.914062 80.359375 C 14.304688 79.089844 16.023438 76.171875 19.089844 74.078125 C 23.648438 71.089844 32.023438 67.722656 37.40625 65.105469 C 41.667969 63.015625 46.304688 60.398438 48.769531 59.722656 C 49.816406 59.351562 50.488281 59.351562 51.238281 59.425781 C 51.984375 59.574219 52.65625 59.722656 53.179688 60.246094 C 53.929688 60.996094 54.902344 62.714844 54.976562 63.910156 C 54.976562 64.882812 54.75 65.40625 53.777344 66.753906 C 49.667969 72.660156 15.425781 104.359375 9.742188 107.421875 C 8.621094 108.019531 8.175781 108.019531 7.425781 107.945312 C 6.453125 107.871094 5.257812 107.496094 4.511719 106.824219 C 3.835938 106.226562 3.238281 105.03125 3.089844 104.132812 C 2.941406 103.460938 3.015625 102.714844 3.316406 102.113281 C 3.6875 101.292969 4.359375 100.46875 5.40625 99.796875 C 6.902344 98.675781 9.445312 98.375 12.359375 96.808594 C 17.894531 93.890625 28.507812 85.667969 35.089844 81.78125 C 39.875 79.011719 44.660156 76.320312 47.871094 75.273438 C 49.667969 74.675781 51.011719 74.226562 52.285156 74.601562 C 53.554688 74.902344 54.976562 76.023438 55.425781 77.144531 C 55.871094 78.191406 55.722656 79.386719 55.125 81.105469 C 53.554688 85.441406 43.835938 97.703125 40.320312 101.742188 C 38.753906 103.609375 38.378906 103.835938 36.433594 105.480469 C 31.800781 109.589844 15.726562 123.945312 11.988281 125.738281 C 10.941406 126.1875 10.640625 126.1875 9.894531 126.113281 C 8.996094 126.039062 7.726562 125.515625 7.050781 124.84375 C 6.304688 124.167969 5.78125 122.972656 5.707031 122 C 5.632812 121.03125 6.453125 119.011719 6.605469 119.011719 C 6.828125 119.085938 6.605469 123.945312 6.378906 124.019531 C 6.230469 124.019531 5.855469 123.199219 5.78125 122.675781 C 5.707031 121.925781 5.632812 120.730469 6.082031 119.910156 C 6.679688 118.863281 8.175781 117.589844 9.371094 117.367188 C 10.566406 117.140625 12.433594 117.816406 13.332031 118.710938 C 14.15625 119.535156 14.527344 121.554688 14.378906 122.675781 C 14.304688 123.570312 13.632812 124.46875 12.957031 125.066406 C 12.285156 125.664062 11.238281 126.039062 10.34375 126.113281 C 9.445312 126.1875 8.398438 125.964844 7.652344 125.367188 C 6.753906 124.617188 5.78125 122.898438 5.707031 121.703125 C 5.632812 120.804688 6.082031 119.757812 6.605469 119.085938 C 7.128906 118.339844 8.023438 117.664062 8.921875 117.515625 C 10.042969 117.292969 12.136719 117.441406 12.957031 118.339844 C 13.929688 119.460938 14.230469 123.125 13.632812 124.394531 C 13.183594 125.292969 11.914062 125.890625 10.941406 126.039062 C 9.96875 126.261719 8.699219 125.890625 7.875 125.515625 C 7.203125 125.140625 6.679688 124.691406 6.378906 124.019531 C 5.929688 123.273438 5.707031 121.851562 5.78125 120.957031 C 5.855469 120.207031 5.929688 119.910156 6.605469 119.011719 C 9.222656 115.570312 24.996094 105.480469 31.800781 98.226562 C 37.628906 91.945312 42.414062 82.527344 45.703125 78.714844 C 47.199219 76.917969 48.023438 75.722656 49.292969 75.125 C 50.265625 74.601562 51.386719 74.378906 52.285156 74.601562 C 53.40625 74.902344 54.902344 76.246094 55.425781 77.144531 C 55.796875 77.742188 55.871094 78.414062 55.796875 79.164062 C 55.648438 79.984375 55.425781 81.03125 54.453125 81.929688 C 52.433594 83.871094 46.304688 84.695312 41.292969 87.460938 C 33.667969 91.574219 20.660156 103.085938 14.15625 106.003906 C 10.941406 107.421875 8.175781 108.171875 6.378906 107.796875 C 5.183594 107.574219 4.359375 106.898438 3.835938 106.078125 C 3.238281 105.105469 2.714844 103.835938 3.316406 102.113281 C 5.78125 95.386719 37.40625 69.367188 44.433594 63.3125 C 46.75 61.371094 47.574219 60.023438 49.21875 59.648438 C 50.488281 59.277344 52.210938 59.5 53.179688 60.246094 C 54.152344 60.921875 54.976562 62.714844 54.976562 63.910156 C 54.902344 65.105469 54.378906 66.078125 52.957031 67.425781 C 48.917969 71.238281 29.257812 78.191406 22.378906 82.152344 C 18.566406 84.394531 16.621094 87.085938 13.929688 87.984375 C 11.988281 88.65625 8.175781 88.433594 8.175781 88.210938 C 8.097656 87.984375 13.558594 86.191406 13.707031 86.488281 C 13.78125 86.640625 12.285156 88.132812 11.3125 88.433594 C 10.191406 88.730469 8.175781 88.285156 7.277344 87.6875 C 6.605469 87.3125 6.230469 86.789062 5.929688 86.039062 C 5.632812 85.21875 5.183594 84.171875 5.707031 82.976562 C 6.976562 79.984375 14.902344 74.378906 19.835938 70.9375 C 24.546875 67.574219 30.152344 65.257812 34.640625 62.265625 C 38.675781 59.574219 42.714844 55.539062 45.703125 53.894531 C 47.5 52.921875 48.917969 52.25 50.339844 52.25 C 51.6875 52.324219 53.257812 53.070312 54.078125 53.894531 C 54.675781 54.640625 55.050781 55.910156 54.976562 56.882812 C 54.824219 58.003906 54.300781 59.125 52.882812 60.324219 C 49.292969 63.539062 33.59375 68.472656 27.835938 71.3125 C 24.695312 72.957031 23.351562 74.304688 20.734375 75.425781 C 17.820312 76.621094 13.855469 77.816406 11.015625 78.042969 C 8.996094 78.191406 5.707031 77.742188 5.632812 77.519531 C 5.632812 77.21875 11.238281 75.949219 11.390625 76.320312 C 11.539062 76.546875 10.566406 77.441406 9.894531 77.742188 C 9.070312 78.117188 7.726562 78.339844 6.828125 78.117188 C 5.855469 77.890625 4.808594 77.21875 4.285156 76.398438 C 3.613281 75.425781 3.316406 73.628906 3.6875 72.359375 C 4.210938 70.789062 5.929688 69.816406 8.023438 68.023438 C 12.511719 64.285156 23.800781 57.480469 30.152344 52.324219 C 35.386719 48.0625 40.171875 42.527344 43.835938 39.835938 C 46.003906 38.191406 47.796875 36.699219 49.441406 36.546875 C 50.789062 36.546875 52.433594 37.296875 53.179688 38.269531 C 53.929688 39.164062 54.226562 41.109375 54.003906 42.230469 C 53.703125 43.203125 53.257812 43.726562 52.058594 44.695312 C 47.796875 48.136719 23.5 58.230469 17.820312 60.472656 C 16.023438 61.21875 15.5 61.519531 14.15625 61.742188 C 12.585938 62.117188 8.847656 62.339844 8.847656 62.117188 C 8.773438 61.96875 12.660156 60.769531 12.660156 60.847656 C 12.734375 60.921875 11.613281 61.742188 10.941406 61.96875 C 10.042969 62.191406 8.699219 62.191406 7.800781 61.816406 C 6.902344 61.445312 6.007812 60.546875 5.632812 59.648438 C 5.183594 58.753906 4.960938 57.632812 5.40625 56.507812 C 6.082031 54.714844 8.546875 52.847656 11.3125 50.453125 C 16.472656 46.191406 29.554688 38.492188 35.089844 34.15625 C 38.304688 31.613281 40.097656 29.96875 42.339844 27.578125 C 44.433594 25.257812 46.226562 20.25 48.023438 20.027344 C 49.367188 19.949219 51.984375 22.269531 51.835938 23.390625 C 51.535156 25.257812 43.386719 26.679688 39.050781 29.148438 C 34.042969 32.0625 28.585938 36.175781 23.800781 40.136719 C 19.015625 44.097656 13.183594 51.425781 10.265625 52.847656 C 9.144531 53.371094 8.398438 53.445312 7.574219 53.21875 C 6.753906 53.070312 5.78125 52.398438 5.332031 51.726562 C 4.808594 51.050781 4.511719 50.003906 4.585938 49.183594 C 4.660156 48.285156 5.78125 46.714844 5.78125 46.714844 "/></clipPath><clipPath id="6e157a20cf"><path d="M 6.171875 82 L 53.398438 82 L 53.398438 114.882812 L 6.171875 114.882812 Z M 6.171875 82 "/></clipPath><clipPath id="51c5866f47"><path d="M 8.472656 107.496094 C 37.929688 89.929688 44.058594 83.199219 47.648438 82.226562 C 49.292969 81.78125 50.566406 82.078125 51.535156 82.601562 C 52.285156 83.050781 52.882812 83.871094 53.179688 84.695312 C 53.40625 85.519531 53.40625 86.5625 53.179688 87.386719 C 52.882812 88.132812 52.359375 89.03125 51.609375 89.480469 C 50.640625 90.003906 48.769531 90.226562 47.722656 89.929688 C 46.828125 89.628906 46.078125 89.03125 45.703125 88.210938 C 45.179688 87.238281 45.105469 85.367188 45.40625 84.320312 C 45.703125 83.5 46.453125 82.75 47.273438 82.378906 C 48.246094 81.929688 50.191406 81.929688 51.164062 82.378906 C 51.984375 82.675781 52.65625 83.5 52.957031 84.246094 C 53.332031 85.070312 53.480469 86.117188 53.257812 86.9375 C 53.105469 87.761719 52.734375 88.285156 51.910156 89.179688 C 49.964844 91.347656 44.359375 95.160156 39.949219 98.152344 C 34.9375 101.589844 28.359375 105.703125 23.203125 108.621094 C 19.089844 110.9375 14.304688 113.777344 11.761719 114.449219 C 10.566406 114.75 9.820312 114.898438 8.996094 114.675781 C 8.175781 114.449219 7.277344 113.703125 6.828125 113.03125 C 6.378906 112.28125 6.15625 111.160156 6.304688 110.339844 C 6.527344 109.367188 8.472656 107.496094 8.472656 107.496094 "/></clipPath><clipPath id="1a4c03ed6d"><path d="M 5.75 92.140625 L 55.457031 92.140625 L 55.457031 152.652344 L 5.75 152.652344 Z M 5.75 92.140625 "/></clipPath><clipPath id="76e373dbea"><path d="M 6.976562 134.039062 C 19.835938 120.730469 26.941406 110.789062 33.070312 104.957031 C 38.304688 100.023438 45.554688 94.265625 48.84375 92.84375 C 50.117188 92.320312 50.863281 92.171875 51.835938 92.320312 C 52.734375 92.546875 53.777344 93.144531 54.378906 93.890625 C 54.902344 94.636719 55.273438 95.683594 55.199219 96.808594 C 55.125 98.601562 53.179688 100.769531 52.582031 103.386719 C 51.6875 107.273438 52.882812 114.300781 51.535156 117.816406 C 50.640625 120.207031 49.21875 121.328125 47.351562 123.273438 C 44.582031 126.113281 38.675781 131.273438 35.984375 132.394531 C 34.789062 132.917969 33.816406 132.917969 32.996094 132.769531 C 32.324219 132.691406 31.648438 132.320312 31.199219 131.871094 C 30.675781 131.421875 30.230469 130.898438 30.003906 130.226562 C 29.707031 129.402344 29.554688 128.355469 29.929688 127.160156 C 30.753906 124.769531 36.433594 120.207031 37.554688 117.589844 C 38.152344 116.019531 37.183594 114.449219 37.929688 113.554688 C 38.828125 112.433594 42.789062 111.535156 43.164062 112.058594 C 43.613281 112.65625 41.667969 115.050781 40.097656 117.140625 C 37.105469 121.179688 29.109375 129.925781 24.921875 133.964844 C 22.304688 136.503906 20.511719 138 18.191406 139.71875 C 15.875 141.289062 12.957031 143.757812 10.867188 143.980469 C 9.445312 144.058594 7.875 143.308594 7.128906 142.5625 C 6.378906 141.8125 6.082031 140.542969 6.007812 139.644531 C 6.007812 138.972656 6.007812 138.300781 6.527344 137.628906 C 7.652344 136.355469 12.433594 135.609375 14.976562 134.039062 C 17.445312 132.542969 18.941406 130.449219 21.554688 128.582031 C 24.996094 126.039062 30.003906 122.675781 33.890625 120.65625 C 37.03125 118.9375 40.546875 117.515625 42.9375 116.84375 C 44.507812 116.394531 45.480469 116.171875 46.902344 116.246094 C 48.695312 116.246094 51.910156 116.09375 52.957031 117.292969 C 54.003906 118.488281 54.003906 121.179688 53.179688 123.496094 C 51.761719 127.535156 44.285156 134.1875 40.546875 137.777344 C 37.855469 140.394531 36.285156 141.886719 33.21875 143.90625 C 28.957031 146.671875 20.585938 151.757812 16.847656 152.355469 C 15.128906 152.65625 14.230469 152.355469 12.808594 151.757812 C 10.867188 150.785156 7.277344 148.394531 6.605469 146.375 C 6.007812 144.65625 6.902344 142.039062 7.800781 140.617188 C 8.546875 139.421875 9.519531 139.121094 11.164062 138.074219 C 14.976562 135.609375 26.042969 129.777344 31.277344 127.382812 C 34.492188 125.964844 36.957031 124.617188 39.199219 124.320312 C 40.769531 124.167969 42.339844 124.167969 43.386719 124.84375 C 44.507812 125.515625 45.554688 126.785156 45.78125 128.429688 C 46.078125 131.273438 42.863281 137.628906 41.144531 141.140625 C 39.875 143.90625 38.378906 146.375 36.882812 147.945312 C 35.835938 149.140625 34.9375 149.886719 33.742188 150.488281 C 32.546875 151.007812 31.050781 151.53125 29.855469 151.382812 C 28.882812 151.160156 27.835938 150.5625 27.238281 149.738281 C 26.640625 148.992188 26.191406 147.792969 26.265625 146.824219 C 26.339844 145.851562 26.566406 144.953125 27.460938 143.980469 C 29.632812 141.8125 39.273438 140.542969 41.816406 137.476562 C 43.6875 135.234375 43.011719 131.273438 43.835938 129.328125 C 44.433594 128.058594 45.03125 127.011719 45.78125 126.414062 C 46.378906 125.964844 46.976562 125.738281 47.722656 125.664062 C 48.695312 125.664062 50.042969 125.890625 50.863281 126.488281 C 51.609375 127.011719 52.359375 128.132812 52.582031 129.105469 C 52.882812 130 52.582031 131.347656 52.210938 132.246094 C 51.910156 132.917969 51.011719 133.890625 50.789062 133.8125 C 50.488281 133.664062 51.761719 127.984375 52.132812 127.984375 C 52.507812 127.984375 52.957031 130.375 53.179688 131.945312 C 53.554688 134.261719 53.703125 137.851562 53.554688 140.320312 C 53.40625 142.335938 53.480469 144.503906 52.582031 145.777344 C 51.835938 146.898438 50.566406 147.273438 49.070312 147.945312 C 46.902344 148.992188 43.011719 150.410156 40.621094 150.636719 C 38.902344 150.859375 37.40625 151.085938 36.136719 150.261719 C 34.492188 149.140625 32.695312 145.101562 32.398438 143.308594 C 32.171875 142.1875 32.246094 141.289062 32.695312 140.394531 C 33.292969 139.421875 34.863281 138.074219 36.058594 137.925781 C 37.332031 137.703125 39.199219 138.375 40.023438 139.273438 C 40.921875 140.167969 41.445312 142.113281 41.144531 143.382812 C 40.84375 144.582031 39.425781 146 38.378906 146.523438 C 37.480469 146.972656 36.433594 146.972656 35.539062 146.671875 C 34.414062 146.226562 32.921875 144.804688 32.472656 143.757812 C 32.097656 142.859375 32.246094 141.738281 32.546875 140.84375 C 32.847656 140.019531 33.445312 139.046875 34.265625 138.597656 C 35.3125 138.074219 37.332031 137.703125 38.453125 138.226562 C 39.574219 138.675781 41.070312 140.617188 41.144531 141.441406 C 41.21875 141.886719 40.921875 142.1875 40.546875 142.488281 C 39.722656 143.085938 35.835938 143.535156 35.835938 143.535156 C 35.835938 143.457031 43.6875 142.859375 44.734375 141.441406 C 45.40625 140.46875 44.285156 139.195312 44.359375 137.628906 C 44.359375 134.859375 44.359375 128.058594 45.78125 126.414062 C 46.527344 125.589844 47.871094 125.589844 48.84375 125.664062 C 49.816406 125.816406 51.011719 126.5625 51.609375 127.160156 C 52.132812 127.683594 52.433594 128.429688 52.582031 129.105469 C 52.808594 129.703125 52.808594 130.523438 52.582031 131.199219 C 52.359375 132.09375 50.714844 133.214844 50.789062 133.8125 C 50.863281 134.261719 51.761719 134.261719 51.984375 134.710938 C 52.285156 135.535156 52.132812 137.328125 51.460938 138.75 C 50.414062 140.992188 47.574219 143.980469 44.660156 145.925781 C 41.070312 148.394531 33.519531 151.160156 30.976562 151.382812 C 30.003906 151.53125 29.554688 151.382812 28.882812 151.007812 C 28.0625 150.636719 27.015625 149.8125 26.640625 148.839844 C 26.265625 147.792969 26.265625 146.074219 26.863281 144.804688 C 27.613281 143.308594 30.078125 142.5625 31.351562 140.84375 C 32.921875 138.824219 33.816406 135.234375 35.089844 133.289062 C 35.910156 132.019531 36.660156 130.523438 37.78125 130.300781 C 38.828125 130.074219 41.59375 131.121094 41.59375 131.945312 C 41.667969 133.890625 27.613281 140.167969 22.527344 142.1875 C 19.386719 143.457031 14.605469 144.65625 14.527344 144.355469 C 14.453125 144.058594 20.511719 141.664062 23.574219 139.871094 C 27.015625 137.777344 30.828125 135.308594 34.042969 132.46875 C 37.332031 129.554688 40.472656 124.84375 42.863281 122.675781 C 44.359375 121.328125 45.480469 119.683594 46.601562 119.832031 C 47.871094 119.984375 50.339844 122.75 50.042969 123.945312 C 49.519531 125.664062 42.117188 125.816406 38.378906 127.609375 C 34.414062 129.476562 30.378906 132.617188 26.941406 135.085938 C 23.949219 137.253906 21.257812 140.242188 18.941406 141.664062 C 17.445312 142.636719 16.324219 143.085938 14.828125 143.457031 C 13.332031 143.832031 10.117188 144.28125 10.042969 143.980469 C 9.96875 143.683594 14.082031 141.589844 14.15625 141.664062 C 14.230469 141.8125 12.660156 143.382812 11.835938 143.683594 C 11.238281 143.980469 10.492188 144.058594 9.820312 143.980469 C 8.921875 143.757812 7.726562 143.234375 7.128906 142.5625 C 6.453125 141.8125 6.082031 140.542969 6.007812 139.644531 C 6.007812 138.972656 6.007812 138.449219 6.527344 137.628906 C 7.949219 135.460938 14.453125 132.019531 18.941406 127.90625 C 25.21875 122.152344 35.460938 107.347656 39.875 105.554688 C 41.445312 104.957031 42.566406 105.179688 43.613281 105.851562 C 44.957031 106.675781 46.226562 109.441406 46.601562 111.085938 C 46.902344 112.507812 46.378906 113.851562 46.226562 115.199219 C 46.078125 116.617188 46.078125 118.039062 45.628906 119.460938 C 45.179688 120.957031 44.507812 122.300781 43.460938 123.945312 C 41.890625 126.261719 38.753906 130.449219 36.808594 131.796875 C 35.835938 132.542969 34.9375 132.917969 34.042969 132.917969 C 33.070312 132.917969 31.875 132.394531 31.199219 131.871094 C 30.601562 131.421875 30.230469 130.898438 30.003906 130.226562 C 29.707031 129.402344 29.480469 128.355469 29.929688 127.160156 C 31.277344 124.246094 41.445312 119.535156 43.613281 114.824219 C 45.40625 110.789062 43.011719 105.253906 43.984375 101.515625 C 44.808594 98.375 46.378906 94.863281 48.023438 93.441406 C 49.144531 92.546875 50.789062 92.246094 51.835938 92.320312 C 52.507812 92.394531 53.105469 92.695312 53.628906 93.21875 C 54.300781 93.742188 54.976562 94.9375 55.199219 95.761719 C 55.347656 96.433594 55.273438 97.105469 55.050781 97.777344 C 54.75 98.601562 54.453125 99.199219 53.554688 100.171875 C 51.3125 102.488281 44.734375 105.628906 39.574219 110.1875 C 31.722656 117.140625 16.773438 136.28125 12.359375 139.496094 C 11.238281 140.242188 10.789062 140.542969 9.894531 140.542969 C 9.070312 140.617188 8.023438 140.320312 7.351562 139.796875 C 6.679688 139.273438 6.007812 138.300781 5.929688 137.476562 C 5.78125 136.429688 6.976562 134.039062 6.976562 134.039062 "/></clipPath><clipPath id="16205da70a"><path d="M 88.359375 6.832031 L 137.78125 6.832031 L 137.78125 114.308594 L 88.359375 114.308594 Z M 88.359375 6.832031 "/></clipPath><clipPath id="482573dc25"><path d="M 97.214844 9.183594 C 118.671875 10.15625 120.992188 7.988281 122.785156 8.136719 C 123.90625 8.289062 124.804688 8.8125 125.402344 9.632812 C 126.074219 10.53125 126.597656 12.324219 126.300781 13.445312 C 126 14.566406 124.878906 15.765625 123.609375 16.363281 C 121.8125 17.109375 118.824219 15.390625 115.832031 16.4375 C 110.375 18.230469 98.859375 29.820312 95.496094 31.390625 C 94.523438 31.839844 94.152344 31.988281 93.402344 31.914062 C 92.507812 31.839844 91.160156 31.390625 90.488281 30.792969 C 89.890625 30.34375 89.441406 29.820312 89.214844 29.070312 C 88.992188 28.25 88.917969 26.828125 89.214844 25.933594 C 89.441406 25.257812 89.738281 24.511719 90.414062 24.210938 C 91.535156 23.613281 94.226562 24.585938 95.871094 24.136719 C 97.367188 23.6875 98.1875 22.492188 100.058594 21.820312 C 103.046875 20.699219 108.355469 20.996094 112.691406 19.128906 C 118.148438 16.734375 126 7.613281 129.8125 7.015625 C 131.457031 6.792969 132.878906 7.390625 133.699219 8.289062 C 134.597656 9.109375 134.972656 11.128906 134.972656 12.175781 C 134.898438 12.996094 134.671875 13.671875 134.074219 14.121094 C 133.027344 14.867188 129.960938 14.269531 128.167969 14.792969 C 126.449219 15.242188 125.402344 16.363281 123.53125 16.960938 C 121.066406 17.855469 116.578125 17.933594 114.410156 18.828125 C 112.917969 19.425781 112.167969 20.25 111.121094 20.996094 C 110 21.746094 109.179688 22.042969 107.980469 23.316406 C 105.289062 26.15625 99.757812 37.144531 97.664062 39.464844 C 96.917969 40.285156 96.691406 40.511719 95.945312 40.808594 C 95.121094 41.109375 93.777344 41.332031 92.804688 41.035156 C 91.910156 40.734375 90.863281 39.914062 90.339844 39.089844 C 89.816406 38.191406 89.214844 37.070312 89.738281 35.949219 C 91.234375 32.960938 104.46875 29.296875 111.273438 25.484375 C 117.777344 21.894531 125.625 15.089844 129.664062 14.042969 C 131.457031 13.519531 132.804688 13.746094 133.773438 14.121094 C 134.449219 14.417969 134.972656 14.941406 135.269531 15.539062 C 135.71875 16.289062 136.09375 17.632812 135.945312 18.605469 C 135.867188 19.578125 135.34375 20.25 134.449219 21.296875 C 132.878906 23.242188 128.839844 25.558594 126 28.398438 C 122.484375 32.0625 119.347656 36.996094 115.160156 41.855469 C 109.777344 48.0625 100.65625 60.246094 96.394531 62.414062 C 94.75 63.238281 93.402344 63.238281 92.355469 62.789062 C 91.234375 62.265625 89.964844 60.847656 89.738281 59.648438 C 89.515625 58.453125 89.964844 56.585938 90.863281 55.761719 C 91.832031 54.789062 93.628906 55.761719 95.722656 54.714844 C 101.550781 51.648438 116.804688 33.035156 124.132812 28.324219 C 127.945312 25.855469 131.53125 24.285156 133.773438 24.285156 C 134.972656 24.285156 135.867188 24.808594 136.542969 25.558594 C 137.289062 26.378906 137.886719 28.175781 137.664062 29.371094 C 137.4375 30.492188 135.644531 31.316406 135.195312 32.511719 C 134.746094 33.632812 135.34375 34.753906 134.898438 36.25 C 134.222656 38.566406 132.207031 42.15625 130.484375 44.921875 C 128.765625 47.761719 126.824219 50.378906 124.652344 53.144531 C 122.113281 56.359375 119.644531 59.199219 116.054688 62.863281 C 110.824219 68.246094 99.535156 79.238281 95.644531 81.554688 C 94.300781 82.304688 93.628906 82.601562 92.730469 82.527344 C 91.757812 82.527344 90.5625 82.003906 89.816406 81.332031 C 89.140625 80.65625 88.617188 79.460938 88.542969 78.566406 C 88.394531 77.816406 88.320312 77.144531 88.84375 76.472656 C 89.964844 75.125 94.226562 74.828125 97.890625 72.882812 C 104.617188 69.292969 119.121094 57.855469 124.804688 54.492188 C 127.269531 52.996094 128.914062 52.023438 130.335938 51.648438 C 131.160156 51.425781 131.683594 51.351562 132.429688 51.5 C 133.253906 51.726562 134.449219 52.398438 135.046875 53.144531 C 135.570312 53.894531 135.867188 55.164062 135.867188 56.0625 C 135.867188 56.808594 135.644531 57.40625 135.269531 58.003906 C 134.746094 58.753906 133.402344 58.976562 132.878906 59.875 C 132.207031 60.996094 132.652344 63.164062 132.207031 64.507812 C 131.757812 65.78125 131.234375 66.453125 130.261719 67.875 C 128.167969 71.011719 123.832031 77.367188 119.046875 82.003906 C 113.066406 87.835938 100.207031 97.777344 95.945312 99.347656 C 94.601562 99.796875 93.851562 99.796875 92.953125 99.5 C 91.984375 99.199219 91.011719 98.300781 90.5625 97.554688 C 90.113281 96.957031 89.964844 96.359375 89.964844 95.609375 C 89.964844 94.714844 90.113281 93.890625 90.863281 92.695312 C 92.582031 90.078125 98.636719 84.996094 102.898438 82.003906 C 107.011719 79.164062 111.496094 77.144531 115.832031 75.125 C 120.019531 73.183594 125.027344 70.566406 128.542969 70.042969 C 130.859375 69.742188 133.476562 69.667969 134.671875 70.640625 C 135.644531 71.535156 136.019531 73.332031 135.71875 75.050781 C 135.195312 78.042969 131.082031 82.601562 128.019531 86.488281 C 124.503906 90.902344 120.09375 95.835938 115.382812 99.871094 C 110.523438 104.132812 102.597656 111.835938 99.234375 111.3125 C 97.441406 111.085938 95.644531 108.320312 95.644531 106.824219 C 95.644531 105.253906 97.890625 103.835938 99.535156 102.339844 C 101.703125 100.320312 105.066406 98.078125 107.980469 96.285156 C 110.75 94.488281 113.140625 92.917969 116.578125 91.425781 C 121.066406 89.480469 129.738281 86.117188 132.878906 86.039062 C 134.074219 86.039062 134.746094 86.265625 135.496094 86.863281 C 136.316406 87.535156 137.289062 89.253906 137.289062 90.378906 C 137.289062 91.574219 136.390625 93.292969 135.421875 93.890625 C 134.375 94.5625 132.429688 94.636719 131.382812 94.265625 C 130.558594 94.039062 129.8125 93.21875 129.363281 92.46875 C 128.914062 91.722656 128.617188 90.75 128.765625 89.855469 C 128.992188 88.730469 130.113281 87.164062 131.082031 86.5625 C 131.832031 86.039062 132.953125 85.964844 133.773438 86.117188 C 134.597656 86.265625 135.570312 86.714844 136.167969 87.460938 C 136.839844 88.285156 137.363281 90.226562 137.214844 91.347656 C 137.066406 92.246094 136.691406 92.84375 135.71875 93.667969 C 133.253906 95.683594 124.132812 96.882812 118.300781 99.871094 C 111.496094 103.3125 102.523438 112.507812 97.664062 113.703125 C 95.347656 114.300781 93.179688 114.300781 92.132812 113.179688 C 90.9375 111.984375 90.5625 108.621094 91.683594 106.300781 C 93.777344 102.039062 106.039062 96.882812 110.597656 93.070312 C 113.441406 90.601562 114.636719 89.105469 117.027344 86.339844 C 120.394531 82.453125 126.972656 71.089844 128.691406 71.460938 C 129.515625 71.6875 128.914062 74.828125 129.738281 75.796875 C 130.484375 76.695312 133.253906 76.695312 133.253906 77.292969 C 133.175781 78.488281 123.457031 80.882812 119.496094 82.675781 C 116.28125 84.097656 113.363281 85.59375 110.972656 87.011719 C 109.253906 88.058594 108.207031 88.582031 106.414062 90.003906 C 103.570312 92.171875 98.5625 98.226562 95.945312 99.347656 C 94.75 99.796875 93.777344 99.722656 92.953125 99.5 C 92.207031 99.273438 91.609375 98.976562 91.160156 98.375 C 90.636719 97.777344 89.964844 96.582031 89.964844 95.609375 C 89.890625 94.714844 90.113281 93.816406 90.863281 92.695312 C 92.804688 90.152344 100.804688 86.191406 104.917969 82.976562 C 108.503906 80.210938 111.347656 78.191406 114.410156 74.902344 C 118.074219 70.863281 123.085938 63.761719 125.027344 60.023438 C 126.148438 58.003906 126 56.507812 126.898438 55.089844 C 127.792969 53.742188 129.066406 52.023438 130.335938 51.648438 C 131.53125 51.277344 133.328125 51.726562 134.296875 52.398438 C 135.121094 52.996094 135.644531 54.117188 135.867188 55.015625 C 136.019531 55.988281 135.644531 57.257812 135.269531 58.003906 C 134.898438 58.679688 134.523438 58.902344 133.773438 59.425781 C 132.207031 60.621094 128.992188 62.042969 125.625 64.136719 C 119.945312 67.722656 107.609375 77.367188 103.121094 79.835938 C 101.328125 80.882812 100.65625 81.105469 99.160156 81.554688 C 97.367188 82.078125 93.105469 82.976562 92.953125 82.601562 C 92.804688 82.226562 96.769531 79.761719 96.84375 79.910156 C 96.917969 79.984375 95.570312 81.703125 94.75 82.152344 C 93.851562 82.527344 92.582031 82.675781 91.683594 82.378906 C 90.710938 82.078125 89.664062 81.40625 89.214844 80.507812 C 88.617188 79.535156 88.394531 77.816406 88.84375 76.472656 C 89.441406 74.75 91.308594 73.480469 93.402344 71.460938 C 97.292969 67.648438 106.335938 60.546875 110.75 56.136719 C 113.664062 53.144531 115.609375 50.753906 117.703125 48.210938 C 119.496094 45.96875 120.992188 44.472656 122.5625 41.855469 C 124.730469 38.269531 127.046875 31.390625 128.839844 28.398438 C 129.886719 26.679688 130.558594 25.183594 131.757812 24.660156 C 132.878906 24.136719 134.746094 24.285156 135.71875 24.886719 C 136.691406 25.558594 137.664062 27.128906 137.738281 28.324219 C 137.8125 29.519531 137.140625 30.792969 136.09375 31.914062 C 134.375 33.855469 130.261719 34.453125 126.671875 37.070312 C 120.691406 41.40625 109.328125 54.191406 105.066406 57.78125 C 103.421875 59.199219 102.898438 59.722656 101.476562 60.472656 C 99.757812 61.445312 97.140625 62.566406 95.421875 62.863281 C 94.226562 63.089844 93.253906 63.238281 92.355469 62.789062 C 91.308594 62.265625 90.113281 60.621094 89.738281 59.648438 C 89.515625 58.902344 89.589844 58.230469 89.816406 57.554688 C 90.113281 56.734375 91.683594 55.164062 91.609375 55.089844 C 91.609375 55.015625 90.5625 55.988281 90.5625 55.988281 C 90.339844 55.6875 114.859375 27.351562 122.261719 20.324219 C 125.777344 17.035156 128.316406 14.121094 130.710938 13.671875 C 132.128906 13.371094 133.773438 13.894531 134.597656 14.71875 C 135.496094 15.539062 136.09375 17.410156 135.945312 18.605469 C 135.867188 19.578125 135.496094 20.25 134.449219 21.296875 C 131.457031 24.363281 119.046875 31.238281 112.46875 34.753906 C 107.308594 37.445312 101.777344 40.359375 98.414062 41.183594 C 96.617188 41.558594 94.300781 41.78125 94.152344 41.257812 C 93.925781 40.734375 98.414062 37.445312 98.488281 37.519531 C 98.636719 37.667969 96.992188 40.285156 95.945312 40.808594 C 95.046875 41.257812 93.777344 41.332031 92.804688 41.035156 C 91.910156 40.734375 90.863281 39.914062 90.339844 39.089844 C 89.816406 38.191406 89.441406 37.222656 89.738281 35.949219 C 90.261719 33.484375 94.824219 28.996094 96.84375 25.707031 C 98.5625 22.867188 99.234375 19.800781 101.253906 17.558594 C 103.273438 15.242188 106.785156 13.371094 109.105469 12.027344 C 110.824219 11.054688 111.796875 10.605469 113.738281 9.933594 C 117.027344 8.886719 123.832031 7.242188 127.347656 7.167969 C 129.589844 7.089844 132.878906 7.613281 132.878906 7.839844 C 132.878906 8.136719 127.195312 8.886719 127.121094 8.660156 C 127.046875 8.4375 129.664062 6.941406 130.859375 7.015625 C 132.054688 7.089844 133.699219 8.136719 134.375 9.109375 C 134.972656 9.933594 135.046875 11.277344 134.972656 12.175781 C 134.820312 12.921875 134.597656 13.445312 134.074219 14.121094 C 133.328125 15.164062 131.683594 16.660156 130.335938 17.558594 C 129.066406 18.378906 127.496094 18.457031 126.222656 19.351562 C 124.878906 20.175781 124.054688 21.671875 122.636719 22.792969 C 120.839844 24.210938 118.898438 25.707031 116.132812 26.976562 C 111.945312 28.847656 103.273438 30.640625 99.460938 31.390625 C 97.441406 31.761719 96.320312 32.136719 94.898438 32.0625 C 93.554688 31.914062 91.011719 31.164062 91.011719 30.941406 C 91.085938 30.714844 96.320312 30.492188 96.320312 30.792969 C 96.394531 30.941406 94.449219 31.988281 93.402344 31.914062 C 92.207031 31.839844 90.488281 30.792969 89.738281 30.042969 C 89.214844 29.445312 88.992188 28.773438 88.992188 28.023438 C 88.917969 27.128906 88.917969 26.230469 89.738281 24.960938 C 92.132812 21.371094 107.757812 11.054688 112.394531 8.886719 C 114.1875 8.0625 114.859375 7.988281 116.429688 7.839844 C 118.523438 7.691406 122.113281 7.691406 123.757812 8.4375 C 124.804688 8.886719 125.550781 9.632812 126 10.457031 C 126.375 11.277344 126.523438 12.550781 126.300781 13.445312 C 126 14.34375 125.402344 15.164062 124.503906 15.914062 C 123.308594 16.886719 121.289062 17.855469 119.269531 18.378906 C 116.804688 18.980469 113.664062 18.902344 110.523438 18.753906 C 106.859375 18.605469 101.550781 17.855469 98.5625 17.257812 C 96.691406 16.886719 95.121094 16.734375 94.152344 15.988281 C 93.402344 15.390625 92.804688 14.566406 92.730469 13.671875 C 92.582031 12.699219 93.03125 11.054688 93.777344 10.304688 C 94.523438 9.558594 97.214844 9.183594 97.214844 9.183594 "/></clipPath><clipPath id="24df910ee3"><path d="M 87 77 L 138.4375 77 L 138.4375 151.125 L 87 151.125 Z M 87 77 "/></clipPath><clipPath id="337fa8f6f8"><path d="M 89.890625 100.769531 C 113.515625 89.332031 115.683594 87.3125 117.851562 84.917969 C 119.945312 82.675781 121.289062 78.488281 123.007812 77.441406 C 123.980469 76.917969 125.027344 76.917969 125.925781 77.21875 C 126.824219 77.441406 127.867188 78.191406 128.390625 78.9375 C 128.839844 79.761719 129.140625 80.65625 128.992188 81.855469 C 128.765625 83.871094 127.269531 86.863281 125.476562 89.777344 C 122.933594 93.964844 118.226562 100.097656 113.886719 104.207031 C 109.777344 108.097656 102.675781 111.234375 100.429688 113.925781 C 99.382812 115.273438 99.535156 116.246094 98.785156 117.441406 C 97.890625 118.863281 96.617188 121.105469 95.199219 121.703125 C 94 122.226562 92.132812 122.152344 91.085938 121.554688 C 90.039062 120.957031 89.140625 119.160156 88.917969 118.113281 C 88.769531 117.367188 88.769531 116.695312 89.214844 116.09375 C 89.964844 115.050781 91.984375 114.449219 94.300781 113.402344 C 98.636719 111.460938 109.777344 108.097656 114.039062 106.152344 C 116.132812 105.105469 116.65625 104.433594 118.671875 103.535156 C 122.113281 101.964844 130.113281 98.898438 133.175781 98.675781 C 134.523438 98.601562 135.34375 98.75 136.167969 99.199219 C 136.988281 99.722656 137.8125 100.621094 138.113281 101.589844 C 138.410156 102.714844 138.1875 104.65625 137.4375 105.554688 C 136.542969 106.601562 133.925781 106.078125 132.578125 107.050781 C 131.160156 108.097656 130.785156 110.039062 129.214844 111.683594 C 126.898438 114.300781 122.1875 118.414062 119.347656 120.507812 C 117.476562 121.925781 116.578125 122.523438 114.1875 123.722656 C 109.851562 126.039062 96.992188 133.589844 94.601562 132.246094 C 93.476562 131.570312 93.402344 127.984375 94.152344 127.308594 C 94.75 126.636719 96.46875 127.757812 98.039062 127.683594 C 100.582031 127.535156 104.09375 126.785156 107.980469 125.664062 C 113.589844 123.871094 123.757812 118.636719 128.242188 117.140625 C 130.484375 116.394531 131.832031 115.871094 133.253906 115.871094 C 134.375 115.945312 135.421875 116.09375 136.242188 116.695312 C 137.066406 117.441406 137.960938 119.160156 137.960938 120.28125 C 138.035156 121.328125 137.511719 122.449219 136.839844 123.125 C 136.167969 123.871094 135.046875 123.722656 134.074219 124.542969 C 132.652344 125.664062 131.53125 128.132812 129.738281 130 C 127.496094 132.320312 124.207031 135.011719 121.289062 137.105469 C 118.449219 139.046875 116.054688 140.617188 112.46875 142.039062 C 107.457031 144.058594 94.226562 147.792969 93.476562 146.597656 C 93.105469 146 94.972656 144.132812 95.945312 143.160156 C 96.917969 142.1875 97.664062 141.140625 99.234375 140.542969 C 102 139.644531 108.058594 141.214844 111.871094 140.542969 C 115.011719 140.019531 117.925781 138.898438 120.46875 137.476562 C 122.859375 136.132812 125.402344 134.335938 126.824219 132.46875 C 128.019531 130.824219 127.867188 128.207031 129.066406 127.085938 C 130.039062 126.113281 131.757812 125.589844 132.878906 125.664062 C 133.925781 125.738281 135.046875 126.339844 135.644531 127.085938 C 136.316406 127.832031 136.617188 128.730469 136.765625 130 C 136.988281 132.617188 135.71875 139.195312 134.820312 142.039062 C 134.296875 143.757812 133.851562 144.804688 133.027344 145.925781 C 132.207031 147.046875 131.382812 147.945312 129.960938 148.691406 C 127.945312 149.8125 123.832031 151.085938 121.589844 151.085938 C 120.019531 151.085938 118.898438 150.636719 117.703125 150.113281 C 116.429688 149.515625 115.535156 148.839844 114.335938 147.71875 C 112.394531 145.851562 109.402344 142.261719 107.757812 139.421875 C 106.261719 136.804688 105.515625 134.1875 104.691406 131.421875 C 103.796875 128.507812 103.644531 125.515625 102.597656 122.152344 C 101.328125 118.039062 98.5625 113.03125 97.292969 108.695312 C 96.167969 104.730469 94.078125 98.675781 95.199219 97.105469 C 95.945312 96.132812 98.785156 96.058594 99.234375 96.65625 C 99.832031 97.40625 97.964844 101.144531 97.066406 102.191406 C 96.542969 102.863281 96.019531 103.085938 95.273438 103.3125 C 94.449219 103.460938 93.105469 103.460938 92.207031 103.085938 C 91.308594 102.636719 90.414062 101.667969 90.039062 100.84375 C 89.664062 100.246094 89.589844 99.5 89.664062 98.824219 C 89.738281 97.929688 90.863281 95.984375 90.9375 95.984375 C 91.085938 96.058594 90.039062 100.46875 89.816406 100.46875 C 89.515625 100.394531 88.992188 95.835938 89.515625 94.414062 C 89.964844 93.367188 90.9375 92.621094 91.757812 92.246094 C 92.429688 91.945312 93.105469 91.796875 93.851562 91.871094 C 94.675781 92.023438 95.945312 92.546875 96.617188 93.21875 C 97.292969 93.890625 97.214844 95.3125 97.890625 96.058594 C 98.488281 96.882812 100.058594 97.03125 100.429688 97.929688 C 100.953125 98.976562 100.878906 100.992188 100.28125 102.039062 C 99.683594 103.085938 97.890625 103.984375 96.769531 104.207031 C 95.871094 104.28125 94.824219 103.910156 94.078125 103.460938 C 93.328125 102.9375 92.582031 102.113281 92.355469 101.21875 C 92.058594 100.097656 92.355469 98.152344 92.953125 97.179688 C 93.476562 96.359375 94.449219 95.835938 95.273438 95.609375 C 96.167969 95.3125 97.292969 95.386719 98.113281 95.683594 C 98.9375 96.058594 99.757812 96.730469 100.207031 97.480469 C 100.730469 98.300781 100.953125 99.347656 100.878906 100.246094 C 100.804688 101.144531 100.28125 102.113281 99.683594 102.789062 C 99.085938 103.460938 98.1875 104.058594 97.214844 104.132812 C 96.09375 104.207031 94.523438 103.757812 93.328125 102.863281 C 91.683594 101.589844 89.292969 98.375 89.140625 96.507812 C 88.992188 95.085938 89.890625 93.515625 90.863281 92.769531 C 91.832031 92.023438 93.703125 91.722656 94.824219 92.097656 C 96.019531 92.46875 97.214844 93.667969 97.664062 95.011719 C 98.335938 96.808594 98.039062 100.84375 97.066406 102.191406 C 96.46875 103.085938 95.121094 103.386719 94.226562 103.460938 C 93.554688 103.535156 92.804688 103.460938 92.207031 103.085938 C 91.308594 102.488281 90.039062 100.84375 89.738281 99.871094 C 89.515625 99.125 89.664062 98.601562 89.890625 97.777344 C 90.261719 96.207031 91.234375 92.84375 92.730469 91.574219 C 93.925781 90.453125 96.09375 89.855469 97.515625 90.003906 C 98.9375 90.152344 100.355469 91.050781 101.402344 92.171875 C 102.597656 93.367188 103.273438 95.386719 103.945312 97.480469 C 104.84375 100.246094 104.765625 104.359375 105.8125 107.648438 C 106.859375 111.011719 108.878906 113.777344 110.148438 117.441406 C 111.644531 121.703125 111.871094 127.683594 113.886719 131.945312 C 115.683594 135.90625 118.824219 141.515625 121.214844 142.410156 C 122.636719 142.933594 124.578125 142.410156 125.550781 141.367188 C 126.746094 140.019531 126.148438 135.980469 126.671875 133.664062 C 127.121094 131.570312 127.71875 129.253906 128.46875 127.984375 C 128.839844 127.234375 129.214844 126.785156 129.886719 126.414062 C 130.636719 125.964844 131.90625 125.515625 132.878906 125.664062 C 133.851562 125.738281 135.046875 126.488281 135.644531 127.085938 C 136.167969 127.609375 136.390625 128.207031 136.617188 128.953125 C 136.914062 130.152344 137.140625 132.167969 136.839844 133.589844 C 136.617188 134.859375 136.242188 135.832031 135.269531 137.105469 C 133.328125 139.496094 127.121094 143.609375 124.355469 145.328125 C 122.859375 146.226562 122.1875 146.523438 120.691406 147.121094 C 118.597656 147.871094 116.054688 148.917969 112.917969 149.289062 C 108.429688 149.886719 99.757812 149.515625 96.167969 149.066406 C 94.449219 148.917969 93.628906 148.765625 92.429688 148.242188 C 91.085938 147.644531 89.292969 146.972656 88.542969 145.703125 C 87.796875 144.355469 87.648438 141.441406 88.394531 140.167969 C 89.066406 138.972656 90.710938 138.75 92.507812 138.152344 C 95.570312 137.105469 101.703125 136.953125 105.589844 135.683594 C 109.027344 134.636719 111.347656 133.738281 114.710938 131.570312 C 120.019531 128.207031 130.039062 116.84375 133.253906 115.871094 C 134.222656 115.648438 134.671875 115.871094 135.34375 116.171875 C 136.09375 116.617188 137.140625 117.441406 137.589844 118.261719 C 137.960938 119.160156 138.113281 120.433594 137.8125 121.328125 C 137.589844 122.300781 136.988281 123.125 136.019531 123.796875 C 134.375 124.992188 131.007812 125.140625 127.867188 126.261719 C 123.382812 127.984375 116.355469 131.871094 111.644531 133.441406 C 108.28125 134.5625 105.289062 135.160156 102.75 135.609375 C 100.804688 135.980469 99.382812 136.28125 97.738281 136.28125 C 96.09375 136.28125 94.449219 136.207031 92.878906 135.609375 C 91.085938 134.9375 88.394531 133.738281 87.570312 132.320312 C 86.898438 131.199219 86.898438 129.476562 87.421875 128.28125 C 87.945312 126.863281 89.292969 125.890625 91.308594 124.46875 C 95.496094 121.628906 108.058594 117.742188 113.140625 114.527344 C 116.28125 112.582031 117.777344 111.011719 120.09375 108.917969 C 122.484375 106.675781 124.953125 103.160156 127.195312 101.515625 C 128.914062 100.246094 130.859375 99.421875 132.128906 98.976562 C 132.953125 98.75 133.476562 98.527344 134.148438 98.601562 C 135.046875 98.675781 136.316406 99.199219 136.988281 99.871094 C 137.664062 100.542969 138.261719 101.667969 138.261719 102.636719 C 138.335938 103.609375 138.035156 104.730469 137.4375 105.554688 C 136.691406 106.601562 135.496094 107.199219 133.925781 107.945312 C 131.234375 109.292969 126.523438 109.890625 122.039062 111.535156 C 115.757812 113.777344 105.140625 118.9375 99.984375 120.65625 C 97.214844 121.554688 93.628906 122.523438 93.476562 122.152344 C 93.402344 121.925781 97.214844 119.308594 97.367188 119.460938 C 97.441406 119.535156 96.691406 120.730469 96.09375 121.105469 C 95.347656 121.703125 94.078125 122.152344 93.105469 122.152344 C 92.132812 122.078125 90.9375 121.554688 90.261719 120.957031 C 89.664062 120.507812 89.292969 119.910156 89.140625 119.160156 C 88.917969 118.339844 88.84375 116.992188 89.214844 116.09375 C 89.589844 115.050781 90.9375 114.300781 91.460938 113.179688 C 92.058594 112.058594 91.535156 110.710938 92.582031 109.292969 C 94.675781 106.226562 103.347656 102.488281 107.457031 98.75 C 110.972656 95.460938 113.738281 92.097656 116.28125 88.507812 C 118.597656 85.144531 120.019531 79.613281 122.113281 78.042969 C 123.308594 77.144531 124.878906 76.996094 125.925781 77.21875 C 126.898438 77.367188 127.867188 78.191406 128.390625 78.9375 C 128.839844 79.761719 129.066406 80.882812 128.992188 81.855469 C 128.992188 82.976562 128.765625 84.097656 128.019531 85.367188 C 126.824219 87.609375 123.683594 90.976562 121.140625 93.292969 C 118.746094 95.535156 116.730469 97.179688 113.363281 99.125 C 108.132812 102.039062 95.570312 107.796875 91.910156 107.945312 C 90.636719 107.945312 89.964844 107.574219 89.292969 107.050781 C 88.695312 106.527344 88.171875 105.480469 87.945312 104.730469 C 87.871094 104.058594 87.871094 103.460938 88.09375 102.863281 C 88.394531 102.113281 89.890625 100.769531 89.890625 100.769531 "/></clipPath><clipPath id="d386de701b"><path d="M 87.925781 4.515625 L 136.289062 4.515625 L 136.289062 128.15625 L 87.925781 128.15625 Z M 87.925781 4.515625 "/></clipPath><clipPath id="09f7690570"><path d="M 120.839844 61.96875 C 114.5625 80.507812 112.917969 83.425781 111.347656 84.472656 C 110.375 85.070312 109.328125 85.21875 108.429688 85.070312 C 107.535156 84.917969 106.488281 84.320312 105.890625 83.648438 C 105.367188 82.902344 104.917969 81.78125 104.992188 80.808594 C 104.992188 79.910156 105.8125 78.117188 106.113281 78.117188 C 106.414062 78.191406 106.933594 80.734375 106.5625 81.929688 C 106.261719 83.273438 105.066406 84.472656 103.796875 85.816406 C 101.925781 87.6875 98.113281 91.5 95.871094 91.945312 C 94.523438 92.171875 93.328125 91.5 92.207031 90.824219 C 90.9375 90.152344 89.292969 89.03125 88.695312 87.609375 C 87.945312 86.191406 87.722656 83.648438 88.394531 82.226562 C 89.066406 80.882812 91.011719 79.613281 92.582031 79.3125 C 94.226562 78.9375 96.09375 79.761719 98.113281 80.359375 C 100.582031 81.179688 104.09375 84.023438 106.414062 84.097656 C 108.132812 84.171875 109.402344 83.425781 110.898438 82.527344 C 112.992188 81.332031 116.054688 78.9375 117.253906 76.917969 C 118.226562 75.425781 118.148438 74.378906 118.375 71.984375 C 118.972656 66.378906 115.160156 45.445312 118 43.050781 C 119.121094 42.003906 122.636719 42.605469 123.085938 43.726562 C 124.132812 46.714844 104.320312 69.742188 97.738281 71.984375 C 94.675781 73.105469 91.160156 71.910156 89.738281 70.640625 C 88.617188 69.59375 88.617188 68.097656 88.46875 66.230469 C 88.171875 62.863281 88.769531 56.808594 89.890625 52.023438 C 91.160156 46.789062 94.300781 41.929688 95.945312 36.25 C 97.738281 29.894531 98.113281 20.699219 99.984375 15.613281 C 101.105469 12.324219 103.421875 7.839844 104.019531 7.988281 C 104.46875 8.0625 104.992188 11.503906 104.242188 12.472656 C 103.199219 13.671875 97.441406 12.398438 96.769531 13.519531 C 96.320312 14.34375 98.113281 15.914062 98.335938 17.257812 C 98.636719 18.53125 99.011719 20.847656 98.335938 21.296875 C 97.515625 21.746094 93.105469 19.652344 92.878906 18.378906 C 92.582031 17.109375 95.046875 15.164062 96.320312 13.894531 C 97.515625 12.625 98.859375 11.429688 100.28125 10.753906 C 101.550781 10.082031 102.898438 9.558594 104.320312 9.558594 C 105.964844 9.558594 108.429688 10.082031 109.550781 11.054688 C 110.523438 11.875 110.898438 13.296875 111.195312 14.566406 C 111.570312 15.839844 111.644531 16.960938 111.570312 18.605469 C 111.421875 21.148438 109.253906 24.585938 109.550781 28.25 C 109.925781 33.183594 113.441406 39.6875 116.28125 45.59375 C 119.421875 52.25 125.550781 61.445312 127.792969 65.929688 C 128.839844 68.097656 128.992188 68.621094 129.738281 70.9375 C 131.457031 76.097656 136.390625 91.273438 136.242188 96.433594 C 136.167969 98.675781 135.496094 100.023438 134.597656 101.144531 C 133.851562 102.191406 132.878906 102.714844 131.382812 103.085938 C 128.46875 103.757812 120.617188 100.695312 117.476562 101.890625 C 115.382812 102.789062 113.066406 105.328125 113.289062 106.75 C 113.515625 108.246094 117.777344 109.292969 119.421875 110.5625 C 120.765625 111.535156 121.8125 112.433594 122.710938 113.554688 C 123.609375 114.675781 123.683594 116.769531 124.804688 117.292969 C 126.222656 117.964844 129.214844 116.019531 131.007812 116.320312 C 132.429688 116.46875 133.851562 117.140625 134.597656 118.039062 C 135.269531 118.785156 135.496094 120.132812 135.421875 120.957031 C 135.421875 121.703125 135.269531 122.375 134.820312 122.972656 C 134.148438 123.722656 131.832031 124.09375 131.308594 124.917969 C 130.933594 125.515625 131.308594 126.414062 131.007812 126.863281 C 130.785156 127.234375 130.410156 127.535156 129.886719 127.683594 C 128.992188 127.984375 126.898438 128.207031 125.851562 127.683594 C 124.804688 127.085938 123.683594 125.515625 123.609375 124.320312 C 123.457031 123.125 124.28125 121.328125 125.101562 120.582031 C 125.699219 119.910156 126.746094 119.609375 127.644531 119.535156 C 128.542969 119.535156 129.589844 119.832031 130.335938 120.28125 C 131.007812 120.804688 131.683594 121.703125 131.980469 122.523438 C 132.28125 123.347656 132.355469 124.394531 131.980469 125.292969 C 131.53125 126.261719 130.1875 127.683594 128.992188 128.058594 C 127.867188 128.355469 126 127.832031 125.101562 127.160156 C 124.28125 126.636719 123.832031 125.664062 123.683594 124.769531 C 123.457031 123.945312 123.609375 122.898438 123.980469 122.078125 C 124.429688 120.957031 125.476562 119.910156 126.597656 118.9375 C 127.792969 117.964844 129.664062 116.46875 131.007812 116.320312 C 132.054688 116.171875 133.175781 116.695312 133.925781 117.292969 C 134.597656 117.890625 135.34375 118.9375 135.421875 119.910156 C 135.496094 121.105469 134.820312 122.972656 134.148438 123.722656 C 133.625 124.320312 133.175781 124.46875 132.355469 124.769531 C 130.785156 125.292969 127.269531 125.589844 125.328125 125.515625 C 123.832031 125.441406 122.710938 125.214844 121.589844 124.617188 C 120.242188 124.019531 118.972656 122.972656 117.925781 121.851562 C 116.804688 120.65625 116.578125 118.9375 115.234375 117.742188 C 113.363281 116.09375 109.027344 115.347656 107.160156 113.925781 C 105.8125 112.957031 104.84375 112.058594 104.394531 110.710938 C 103.871094 109.066406 104.09375 106.824219 104.765625 104.804688 C 105.664062 102.113281 108.058594 98.375 110.300781 96.433594 C 112.394531 94.714844 114.636719 93.816406 117.476562 93.367188 C 121.140625 92.84375 130.039062 93.292969 130.558594 94.636719 C 130.859375 95.386719 128.765625 97.929688 127.945312 97.777344 C 126.148438 97.332031 123.90625 83.796875 123.234375 79.835938 C 122.859375 77.964844 123.382812 77.519531 122.785156 75.574219 C 121.289062 70.640625 113.214844 58.601562 109.550781 51.125 C 106.488281 44.996094 103.421875 37.96875 102 34.082031 C 101.328125 32.136719 100.878906 31.316406 100.804688 29.519531 C 100.730469 26.902344 102.523438 22.417969 102.675781 19.800781 C 102.824219 18.007812 102.300781 15.464844 102.449219 15.390625 C 102.597656 15.390625 103.871094 18.007812 103.421875 19.277344 C 102.675781 21.296875 97.964844 25.109375 95.496094 25.410156 C 93.628906 25.632812 91.160156 24.363281 90.1875 23.164062 C 89.367188 22.117188 89.589844 20.699219 89.515625 19.128906 C 89.367188 16.8125 89.292969 12.996094 90.039062 10.828125 C 90.5625 9.183594 91.460938 7.839844 92.65625 6.792969 C 93.925781 5.746094 95.722656 5.074219 97.214844 4.773438 C 98.636719 4.476562 100.132812 4.773438 101.550781 4.773438 C 102.898438 4.773438 104.320312 4.550781 105.664062 4.847656 C 107.085938 5.148438 108.878906 5.445312 109.851562 6.417969 C 110.898438 7.464844 111.644531 9.257812 111.570312 10.980469 C 111.496094 13.296875 109.027344 15.839844 107.90625 19.203125 C 106.414062 23.914062 105.964844 31.015625 104.320312 36.847656 C 102.675781 42.902344 99.234375 49.332031 98.039062 54.941406 C 97.066406 59.574219 98.488281 67.277344 97.066406 67.875 C 96.167969 68.320312 93.253906 66.378906 93.105469 64.734375 C 92.730469 60.621094 110.074219 45.371094 114.1875 41.332031 C 115.683594 39.835938 116.355469 39.089844 117.476562 38.34375 C 118.597656 37.59375 119.792969 36.472656 120.992188 36.699219 C 122.785156 36.996094 125.402344 39.464844 126.597656 42.304688 C 128.691406 47.089844 127.496094 59.125 127.421875 64.882812 C 127.421875 68.546875 127.570312 70.714844 126.898438 73.707031 C 126.148438 76.996094 124.429688 81.40625 122.859375 83.796875 C 121.738281 85.367188 120.839844 85.964844 119.421875 87.164062 C 117.328125 88.808594 113.738281 91.347656 111.273438 92.171875 C 109.402344 92.769531 108.058594 92.917969 106.113281 92.621094 C 103.347656 92.246094 98.414062 90.601562 96.542969 89.03125 C 95.421875 88.132812 94.972656 87.011719 94.675781 85.816406 C 94.375 84.546875 94.449219 81.929688 94.824219 81.78125 C 95.273438 81.703125 97.441406 84.320312 97.140625 84.917969 C 96.84375 85.59375 92.582031 85.890625 92.28125 85.292969 C 91.984375 84.695312 94.824219 82.078125 96.246094 80.808594 C 97.589844 79.613281 99.011719 78.863281 100.429688 77.890625 C 101.851562 76.996094 103.199219 75.875 104.617188 75.351562 C 105.964844 74.902344 107.535156 74.304688 108.878906 74.675781 C 110.449219 75.199219 112.917969 77.144531 113.289062 78.789062 C 113.738281 80.359375 112.542969 83.574219 111.347656 84.472656 C 110.375 85.21875 108.429688 85.070312 107.535156 84.769531 C 106.785156 84.621094 106.335938 84.171875 105.890625 83.648438 C 105.441406 82.902344 104.992188 81.703125 104.992188 80.808594 C 104.992188 80.132812 105.140625 79.613281 105.515625 78.9375 C 106.039062 78.042969 107.234375 77.59375 108.058594 76.097656 C 109.925781 72.957031 111.945312 62.042969 113.664062 59.351562 C 114.410156 58.304688 114.933594 57.855469 115.683594 57.554688 C 116.503906 57.257812 117.625 57.183594 118.449219 57.480469 C 119.269531 57.78125 120.09375 58.527344 120.542969 59.277344 C 120.917969 60.023438 120.839844 61.96875 120.839844 61.96875 "/></clipPath><clipPath id="04ee2d0e82"><path d="M 3.554688 6.585938 L 52.117188 6.585938 L 52.117188 28.53125 L 3.554688 28.53125 Z M 3.554688 6.585938 "/></clipPath><clipPath id="150c905b37"><path d="M 31.425781 9.707031 C 50.117188 7.539062 50.414062 7.914062 50.863281 8.363281 C 51.460938 9.035156 52.058594 10.082031 52.058594 11.054688 C 52.058594 12.101562 51.238281 13.820312 50.488281 14.492188 C 50.042969 15.015625 49.441406 15.316406 48.769531 15.316406 C 47.722656 15.390625 46.601562 14.195312 45.03125 14.042969 C 42.117188 13.820312 36.808594 15.089844 32.695312 16.289062 C 28.433594 17.632812 24.023438 19.652344 19.910156 21.746094 C 15.949219 23.6875 11.390625 28.175781 8.546875 28.472656 C 6.976562 28.625 5.558594 27.875 4.734375 27.054688 C 4.0625 26.457031 3.6875 25.410156 3.613281 24.511719 C 3.539062 23.6875 3.835938 22.566406 4.285156 21.820312 C 4.734375 21.148438 5.632812 20.398438 6.453125 20.101562 C 7.277344 19.800781 8.324219 19.652344 9.222656 20.027344 C 10.265625 20.398438 11.761719 21.746094 12.136719 22.867188 C 12.433594 23.988281 11.988281 25.933594 11.390625 26.828125 C 10.867188 27.652344 9.96875 28.175781 9.070312 28.324219 C 7.949219 28.546875 6.007812 28.101562 5.109375 27.425781 C 4.359375 26.828125 3.914062 25.855469 3.6875 25.035156 C 3.539062 24.136719 3.464844 23.242188 4.0625 22.269531 C 5.558594 19.875 12.660156 15.988281 17.144531 13.671875 C 21.332031 11.503906 25.519531 9.78125 29.929688 8.660156 C 34.191406 7.464844 39.5 6.71875 43.089844 6.644531 C 45.480469 6.644531 47.722656 6.792969 49.21875 7.390625 C 50.191406 7.765625 51.011719 8.511719 51.460938 9.183594 C 51.910156 9.707031 52.132812 10.304688 52.058594 11.054688 C 52.058594 12.027344 51.535156 13.671875 50.488281 14.492188 C 49.144531 15.6875 46.152344 15.765625 43.535156 16.136719 C 40.097656 16.734375 34.042969 17.78125 31.648438 17.183594 C 30.527344 16.886719 29.855469 16.363281 29.40625 15.6875 C 28.882812 15.015625 28.585938 13.96875 28.660156 13.074219 C 28.734375 12.25 29.257812 11.203125 29.78125 10.605469 C 30.230469 10.15625 31.425781 9.707031 31.425781 9.707031 "/></clipPath></defs><g id="9b369dee4b"><g clip-rule="nonzero" clip-path="url(#564800fa96)"><path style=" stroke:none;fill-rule:nonzero;fill:#ffa629;fill-opacity:1;" d="M 12.972656 156.214844 L 45.859375 156.214844 C 46.671875 156.214844 47.472656 156.132812 48.265625 155.976562 C 49.058594 155.816406 49.832031 155.582031 50.578125 155.273438 C 51.324219 154.960938 52.035156 154.582031 52.710938 154.132812 C 53.382812 153.683594 54.003906 153.171875 54.578125 152.597656 C 55.148438 152.027344 55.660156 151.402344 56.109375 150.730469 C 56.5625 150.058594 56.941406 149.347656 57.25 148.597656 C 57.5625 147.851562 57.796875 147.082031 57.953125 146.285156 C 58.113281 145.492188 58.191406 144.691406 58.195312 143.882812 L 58.195312 12.332031 C 58.191406 11.523438 58.113281 10.722656 57.953125 9.925781 C 57.796875 9.132812 57.5625 8.363281 57.25 7.617188 C 56.941406 6.867188 56.5625 6.15625 56.109375 5.484375 C 55.660156 4.8125 55.148438 4.1875 54.578125 3.617188 C 54.003906 3.042969 53.382812 2.53125 52.710938 2.082031 C 52.035156 1.632812 51.324219 1.253906 50.578125 0.941406 C 49.832031 0.632812 49.058594 0.398438 48.265625 0.238281 C 47.472656 0.0820312 46.671875 0 45.859375 0 L 12.972656 0 C 12.164062 0 11.363281 0.0820312 10.570312 0.238281 C 9.773438 0.398438 9.003906 0.632812 8.257812 0.941406 C 7.507812 1.253906 6.796875 1.632812 6.125 2.082031 C 5.453125 2.53125 4.828125 3.042969 4.257812 3.617188 C 3.683594 4.1875 3.171875 4.8125 2.722656 5.484375 C 2.273438 6.15625 1.894531 6.867188 1.582031 7.617188 C 1.273438 8.363281 1.039062 9.132812 0.878906 9.925781 C 0.722656 10.722656 0.640625 11.523438 0.640625 12.332031 L 0.640625 143.882812 C 0.640625 144.691406 0.722656 145.492188 0.878906 146.285156 C 1.039062 147.082031 1.273438 147.851562 1.582031 148.597656 C 1.894531 149.347656 2.273438 150.058594 2.722656 150.730469 C 3.171875 151.402344 3.683594 152.027344 4.257812 152.597656 C 4.828125 153.171875 5.453125 153.683594 6.125 154.132812 C 6.796875 154.582031 7.507812 154.960938 8.257812 155.273438 C 9.003906 155.582031 9.773438 155.816406 10.570312 155.976562 C 11.363281 156.132812 12.164062 156.214844 12.972656 156.214844 Z M 8.863281 12.332031 C 8.863281 12.0625 8.890625 11.796875 8.941406 11.53125 C 8.996094 11.265625 9.074219 11.007812 9.175781 10.761719 C 9.28125 10.511719 9.40625 10.273438 9.554688 10.050781 C 9.707031 9.824219 9.875 9.617188 10.066406 9.425781 C 10.257812 9.234375 10.464844 9.066406 10.691406 8.914062 C 10.914062 8.765625 11.152344 8.640625 11.402344 8.535156 C 11.648438 8.433594 11.90625 8.355469 12.171875 8.300781 C 12.4375 8.25 12.703125 8.222656 12.972656 8.222656 L 45.859375 8.222656 C 46.128906 8.222656 46.398438 8.25 46.664062 8.300781 C 46.925781 8.355469 47.183594 8.433594 47.433594 8.535156 C 47.683594 8.640625 47.917969 8.765625 48.144531 8.914062 C 48.367188 9.066406 48.574219 9.234375 48.765625 9.425781 C 48.957031 9.617188 49.128906 9.824219 49.277344 10.050781 C 49.429688 10.273438 49.554688 10.511719 49.65625 10.761719 C 49.761719 11.007812 49.839844 11.265625 49.890625 11.53125 C 49.945312 11.796875 49.972656 12.0625 49.972656 12.332031 L 49.972656 143.882812 C 49.972656 144.152344 49.945312 144.417969 49.890625 144.683594 C 49.839844 144.949219 49.761719 145.203125 49.65625 145.453125 C 49.554688 145.703125 49.429688 145.941406 49.277344 146.164062 C 49.128906 146.390625 48.957031 146.597656 48.765625 146.789062 C 48.574219 146.976562 48.367188 147.148438 48.144531 147.296875 C 47.917969 147.449219 47.683594 147.574219 47.433594 147.679688 C 47.183594 147.78125 46.925781 147.859375 46.664062 147.914062 C 46.398438 147.964844 46.128906 147.992188 45.859375 147.992188 L 12.972656 147.992188 C 12.703125 147.992188 12.4375 147.964844 12.171875 147.914062 C 11.90625 147.859375 11.648438 147.78125 11.402344 147.679688 C 11.152344 147.574219 10.914062 147.449219 10.691406 147.296875 C 10.464844 147.148438 10.257812 146.976562 10.066406 146.789062 C 9.875 146.597656 9.707031 146.390625 9.554688 146.164062 C 9.40625 145.941406 9.28125 145.703125 9.175781 145.453125 C 9.074219 145.203125 8.996094 144.949219 8.941406 144.683594 C 8.890625 144.417969 8.863281 144.152344 8.863281 143.882812 Z M 95.191406 156.214844 L 128.078125 156.214844 C 128.886719 156.214844 129.691406 156.132812 130.484375 155.976562 C 131.277344 155.816406 132.046875 155.582031 132.796875 155.273438 C 133.542969 154.960938 134.253906 154.582031 134.925781 154.132812 C 135.601562 153.679688 136.222656 153.171875 136.796875 152.597656 C 137.367188 152.027344 137.878906 151.402344 138.328125 150.730469 C 138.777344 150.058594 139.160156 149.347656 139.46875 148.597656 C 139.777344 147.851562 140.011719 147.082031 140.171875 146.285156 C 140.332031 145.492188 140.410156 144.691406 140.410156 143.882812 L 140.410156 12.332031 C 140.410156 11.523438 140.332031 10.722656 140.171875 9.925781 C 140.011719 9.132812 139.777344 8.363281 139.46875 7.617188 C 139.160156 6.867188 138.777344 6.15625 138.328125 5.484375 C 137.878906 4.8125 137.367188 4.1875 136.796875 3.617188 C 136.222656 3.042969 135.601562 2.53125 134.925781 2.082031 C 134.253906 1.632812 133.542969 1.253906 132.796875 0.941406 C 132.046875 0.632812 131.277344 0.398438 130.484375 0.238281 C 129.691406 0.0820312 128.886719 0 128.078125 0 L 95.191406 0 C 94.382812 0 93.582031 0.0820312 92.785156 0.238281 C 91.992188 0.398438 91.222656 0.632812 90.472656 0.941406 C 89.726562 1.253906 89.015625 1.632812 88.34375 2.082031 C 87.671875 2.53125 87.046875 3.042969 86.476562 3.617188 C 85.902344 4.1875 85.390625 4.8125 84.941406 5.484375 C 84.492188 6.15625 84.113281 6.867188 83.800781 7.617188 C 83.492188 8.363281 83.257812 9.132812 83.097656 9.925781 C 82.9375 10.722656 82.859375 11.523438 82.859375 12.332031 L 82.859375 143.882812 C 82.859375 144.691406 82.9375 145.492188 83.097656 146.285156 C 83.257812 147.082031 83.492188 147.851562 83.800781 148.597656 C 84.113281 149.347656 84.492188 150.058594 84.941406 150.730469 C 85.390625 151.402344 85.902344 152.027344 86.476562 152.597656 C 87.046875 153.171875 87.671875 153.679688 88.34375 154.132812 C 89.015625 154.582031 89.726562 154.960938 90.472656 155.273438 C 91.222656 155.582031 91.992188 155.816406 92.785156 155.976562 C 93.582031 156.132812 94.382812 156.214844 95.191406 156.214844 Z M 91.082031 12.332031 C 91.082031 12.0625 91.109375 11.796875 91.160156 11.53125 C 91.214844 11.265625 91.292969 11.007812 91.394531 10.761719 C 91.5 10.511719 91.625 10.273438 91.773438 10.050781 C 91.925781 9.824219 92.09375 9.617188 92.285156 9.425781 C 92.476562 9.238281 92.683594 9.066406 92.910156 8.917969 C 93.132812 8.765625 93.371094 8.640625 93.617188 8.535156 C 93.867188 8.433594 94.125 8.355469 94.390625 8.300781 C 94.65625 8.25 94.921875 8.222656 95.191406 8.222656 L 128.078125 8.222656 C 128.347656 8.222656 128.617188 8.25 128.878906 8.300781 C 129.144531 8.355469 129.402344 8.433594 129.652344 8.535156 C 129.898438 8.640625 130.136719 8.765625 130.363281 8.917969 C 130.585938 9.066406 130.792969 9.238281 130.984375 9.425781 C 131.175781 9.617188 131.34375 9.824219 131.496094 10.050781 C 131.644531 10.273438 131.773438 10.511719 131.875 10.761719 C 131.980469 11.007812 132.058594 11.265625 132.109375 11.53125 C 132.164062 11.796875 132.1875 12.0625 132.191406 12.332031 L 132.191406 143.882812 C 132.1875 144.152344 132.164062 144.417969 132.109375 144.683594 C 132.058594 144.949219 131.980469 145.203125 131.875 145.453125 C 131.773438 145.703125 131.644531 145.941406 131.496094 146.164062 C 131.34375 146.386719 131.175781 146.597656 130.984375 146.785156 C 130.792969 146.976562 130.585938 147.148438 130.359375 147.296875 C 130.136719 147.449219 129.898438 147.574219 129.652344 147.679688 C 129.402344 147.78125 129.144531 147.859375 128.878906 147.914062 C 128.617188 147.964844 128.347656 147.992188 128.078125 147.992188 L 95.191406 147.992188 C 94.921875 147.992188 94.65625 147.964844 94.390625 147.914062 C 94.125 147.859375 93.867188 147.78125 93.621094 147.679688 C 93.371094 147.574219 93.132812 147.449219 92.910156 147.296875 C 92.683594 147.148438 92.476562 146.976562 92.285156 146.785156 C 92.09375 146.597656 91.925781 146.386719 91.773438 146.164062 C 91.625 145.941406 91.5 145.703125 91.394531 145.453125 C 91.292969 145.203125 91.214844 144.949219 91.160156 144.683594 C 91.109375 144.417969 91.082031 144.152344 91.082031 143.882812 Z M 91.082031 12.332031 "/></g><g clip-rule="nonzero" clip-path="url(#9a34bb0bed)"><g clip-rule="nonzero" clip-path="url(#ed2144a65e)"><path style=" stroke:none;fill-rule:nonzero;fill:#ffa629;fill-opacity:1;" d="M 4.585938 2.90625 L 37.835938 2.90625 L 37.835938 25.484375 L 4.585938 25.484375 Z M 4.585938 2.90625 "/></g></g><g clip-rule="nonzero" clip-path="url(#5a14e7caee)"><g clip-rule="nonzero" clip-path="url(#de1fb5dac7)"><path style=" stroke:none;fill-rule:nonzero;fill:#ffa629;fill-opacity:1;" d="M 3.761719 3.953125 L 56.980469 3.953125 L 56.980469 42.003906 L 3.761719 42.003906 Z M 3.761719 3.953125 "/></g></g><g clip-rule="nonzero" clip-path="url(#e66ea51850)"><g clip-rule="nonzero" clip-path="url(#22094e8a90)"><path style=" stroke:none;fill-rule:nonzero;fill:#ffa629;fill-opacity:1;" d="M 0.101562 12.175781 L 59.386719 12.175781 L 59.386719 129.128906 L 0.101562 129.128906 Z M 0.101562 12.175781 "/></g></g><g clip-rule="nonzero" clip-path="url(#6e157a20cf)"><g clip-rule="nonzero" clip-path="url(#51c5866f47)"><path style=" stroke:none;fill-rule:nonzero;fill:#ffa629;fill-opacity:1;" d="M 3.316406 79.238281 L 56.253906 79.238281 L 56.253906 117.742188 L 3.316406 117.742188 Z M 3.316406 79.238281 "/></g></g><g clip-rule="nonzero" clip-path="url(#1a4c03ed6d)"><g clip-rule="nonzero" clip-path="url(#76e373dbea)"><path style=" stroke:none;fill-rule:nonzero;fill:#ffa629;fill-opacity:1;" d="M 2.941406 89.332031 L 58.265625 89.332031 L 58.265625 155.246094 L 2.941406 155.246094 Z M 2.941406 89.332031 "/></g></g><g clip-rule="nonzero" clip-path="url(#16205da70a)"><g clip-rule="nonzero" clip-path="url(#482573dc25)"><path style=" stroke:none;fill-rule:nonzero;fill:#ffa629;fill-opacity:1;" d="M 85.554688 4.027344 L 140.804688 4.027344 L 140.804688 116.683594 L 85.554688 116.683594 Z M 85.554688 4.027344 "/></g></g><g clip-rule="nonzero" clip-path="url(#24df910ee3)"><g clip-rule="nonzero" clip-path="url(#337fa8f6f8)"><path style=" stroke:none;fill-rule:nonzero;fill:#ffa629;fill-opacity:1;" d="M 84.433594 74.226562 L 141.328125 74.226562 L 141.328125 154.234375 L 84.433594 154.234375 Z M 84.433594 74.226562 "/></g></g><g clip-rule="nonzero" clip-path="url(#d386de701b)"><g clip-rule="nonzero" clip-path="url(#09f7690570)"><path style=" stroke:none;fill-rule:nonzero;fill:#ffa629;fill-opacity:1;" d="M 85.402344 1.785156 L 139.234375 1.785156 L 139.234375 131.097656 L 85.402344 131.097656 Z M 85.402344 1.785156 "/></g></g><g clip-rule="nonzero" clip-path="url(#04ee2d0e82)"><g clip-rule="nonzero" clip-path="url(#150c905b37)"><path style=" stroke:none;fill-rule:nonzero;fill:#ffa629;fill-opacity:1;" d="M 0.621094 3.652344 L 55.050781 3.652344 L 55.050781 31.464844 L 0.621094 31.464844 Z M 0.621094 3.652344 "/></g></g></g></svg>