<svg xmlns="http://www.w3.org/2000/svg" xmlns:xlink="http://www.w3.org/1999/xlink" width="84" zoomAndPan="magnify" viewBox="0 0 63 47.25" height="63" preserveAspectRatio="xMidYMid meet" version="1.2"><defs><clipPath id="65468063d8"><path d="M 29.175781 20.808594 L 31.285156 20.808594 L 31.285156 22.582031 L 29.175781 22.582031 Z M 29.175781 20.808594 "/></clipPath><clipPath id="d02084eb65"><path d="M 31.277344 21.433594 C 30.320312 22.910156 29.433594 22.617188 29.285156 22.320312 C 29.0625 22.027344 29.210938 21.140625 29.507812 20.917969 C 29.800781 20.695312 30.984375 20.992188 30.984375 20.992188 "/></clipPath><clipPath id="a513fc086c"><path d="M 9 0 L 50 0 L 50 45.773438 L 9 45.773438 Z M 9 0 "/></clipPath><clipPath id="0ff4b2e078"><path d="M 0.492188 2 L 61.769531 2 L 61.769531 41 L 0.492188 41 Z M 0.492188 2 "/></clipPath></defs><g id="8ff63ac576"><g clip-rule="nonzero" clip-path="url(#65468063d8)"><g clip-rule="nonzero" clip-path="url(#d02084eb65)"><path style=" stroke:none;fill-rule:nonzero;fill:#1e1e1e;fill-opacity:1;" d="M 26.332031 17.964844 L 34.3125 17.964844 L 34.3125 25.792969 L 26.332031 25.792969 Z M 26.332031 17.964844 "/></g></g><g clip-rule="nonzero" clip-path="url(#a513fc086c)"><path style=" stroke:none;fill-rule:nonzero;fill:#ff3615;fill-opacity:1;" d="M 44.558594 0.894531 C 42.34375 3.492188 40.132812 6.085938 37.917969 8.679688 C 35.707031 11.273438 33.511719 13.851562 31.304688 16.433594 C 29.09375 19.03125 26.878906 21.625 24.667969 24.21875 C 22.460938 26.804688 20.257812 29.390625 18.054688 31.972656 C 15.847656 34.558594 13.644531 37.144531 11.441406 39.726562 C 11.164062 40.050781 10.890625 40.375 10.613281 40.699219 C 10.324219 40.964844 10.121094 41.28125 10 41.648438 C 9.816406 42 9.730469 42.378906 9.746094 42.785156 C 9.730469 43.191406 9.816406 43.570312 10 43.921875 C 10.121094 44.285156 10.324219 44.601562 10.613281 44.871094 C 11.179688 45.386719 11.917969 45.769531 12.707031 45.734375 C 13.457031 45.699219 14.300781 45.460938 14.800781 44.871094 C 17.015625 42.273438 19.230469 39.679688 21.441406 37.085938 C 23.644531 34.5 25.851562 31.914062 28.054688 29.332031 C 30.269531 26.734375 32.480469 24.140625 34.695312 21.546875 C 36.90625 18.953125 39.101562 16.375 41.308594 13.792969 C 43.511719 11.207031 45.714844 8.621094 47.921875 6.039062 L 48.746094 5.066406 C 49.035156 4.800781 49.238281 4.484375 49.359375 4.117188 C 49.542969 3.765625 49.628906 3.386719 49.613281 2.980469 C 49.628906 2.574219 49.542969 2.195312 49.359375 1.84375 C 49.238281 1.480469 49.035156 1.164062 48.746094 0.894531 C 48.183594 0.378906 47.441406 -0.00390625 46.652344 0.03125 C 45.902344 0.0664062 45.0625 0.304688 44.558594 0.894531 Z M 44.558594 0.894531 "/></g><g clip-rule="nonzero" clip-path="url(#0ff4b2e078)"><path style=" stroke:none;fill-rule:nonzero;fill:#ff3615;fill-opacity:1;" d="M 2.132812 7.738281 C 5.789062 9.742188 9.4375 11.773438 13.066406 13.828125 C 16.683594 15.875 20.285156 17.945312 23.871094 20.039062 C 27.460938 22.136719 31.0625 24.273438 34.636719 26.425781 C 38.195312 28.570312 41.738281 30.738281 45.265625 32.933594 C 48.808594 35.136719 52.335938 37.363281 55.847656 39.613281 C 56.28125 39.890625 56.714844 40.171875 57.144531 40.449219 C 57.777344 40.855469 58.71875 40.941406 59.429688 40.746094 C 60.136719 40.550781 60.863281 40.027344 61.199219 39.390625 C 61.5625 38.707031 61.746094 37.875 61.5 37.117188 C 61.25 36.355469 60.808594 35.785156 60.136719 35.351562 C 56.628906 33.097656 53.105469 30.863281 49.566406 28.652344 C 46.027344 26.445312 42.5 24.28125 38.949219 22.128906 C 35.378906 19.96875 31.792969 17.835938 28.195312 15.722656 C 24.613281 13.621094 21.011719 11.546875 17.402344 9.492188 C 13.773438 7.433594 10.128906 5.398438 6.472656 3.386719 C 6.023438 3.140625 5.570312 2.890625 5.121094 2.644531 C 4.4375 2.269531 3.597656 2.136719 2.835938 2.347656 C 2.148438 2.535156 1.40625 3.066406 1.066406 3.703125 C 0.707031 4.386719 0.523438 5.214844 0.769531 5.976562 C 1.015625 6.734375 1.449219 7.363281 2.132812 7.738281 Z M 2.132812 7.738281 "/></g></g></svg>